<svg id="Ebene_1" data-name="Ebene 1" xmlns="http://www.w3.org/2000/svg" viewBox="0 0 101.4 101.4"><defs><style>.cls-1{fill:#fff;}.cls-2{fill:none;}</style></defs><title>ETER-handwritten</title><polygon class="cls-1" points="52.25 43.06 43.53 38.45 40.48 40.97 38.59 38.68 43.17 34.91 51.95 39.55 58.55 34.5 63.96 40.3 61.79 42.32 58.22 38.49 52.25 43.06"/><polygon class="cls-1" points="52.25 52.69 43.53 48.08 40.48 50.6 38.59 48.32 43.17 44.54 51.95 49.19 58.55 44.13 63.96 49.93 61.79 51.95 58.22 48.12 52.25 52.69"/><polygon class="cls-2" points="36.57 30.94 36.57 69.46 62.21 69.46 59.22 66.47 58.97 66.22 58.86 65.88 56.63 58.97 52.25 62.33 43.53 57.71 40.48 60.23 38.59 57.95 43.17 54.17 51.95 58.82 55.66 55.98 55.31 54.91 54.41 52.12 57.19 53.05 66.58 56.17 66.58 30.94 36.57 30.94"/><polygon class="cls-1" points="36.57 69.46 36.57 30.94 66.58 30.94 66.58 56.17 67.91 56.62 68.24 56.73 68.49 56.98 71.02 59.51 71.02 26.49 32.13 26.49 32.13 73.91 66.66 73.91 62.21 69.46 36.57 69.46"/><path class="cls-1" d="M71,61.61,67.44,58l-.86-.28h0l-6.27-2.09-2.94-1-.65-.22.19.57,1,3,2.4,7.41,4,4,4.44,4.45L78,83.14l7.28-7.28Zm-7.25,3.12-.9-.9-.81-2.5-.72-2.21,2.28.75,2.22.74.74.74.28.29-.28.28h0ZM71,72l-4.44-4.45-.72-.71.72-.72L69,63.73,71,65.8,81.08,75.86,78,79Z"/><polygon class="cls-1" points="43.17 54.17 38.59 57.95 40.48 60.23 43.53 57.71 52.25 62.33 56.63 58.97 55.66 55.98 51.95 58.82 43.17 54.17"/><rect class="cls-2" width="101.4" height="101.4"/></svg>