<svg id="Ebene_1" data-name="Ebene 1" xmlns="http://www.w3.org/2000/svg" viewBox="0 0 101.4 101.4"><defs><style>.cls-1{fill:none;}.cls-2{fill:#fff;}</style></defs><title>ETER-Zeichenfläche 4 Kopie 5</title><path class="cls-1" d="M48.72,49.57c0,.26-.08.51-.12.74h4.24v-.74Z"/><path class="cls-1" d="M55.06,50.31H79.74c-.33-2.58-1.34-6.93-4.44-10.07-2.62-2.66-6.3-4-11-4-10,0-13.7,6.33-15.1,11.11h5.82Z"/><path class="cls-1" d="M44,52.54a20.93,20.93,0,0,1,.26-3H21.39V63.33l-.88.87.88.88V79.21H52.84V64.84l.63-.64-.63-.63V54.76H44Z"/><path class="cls-2" d="M78.5,37.15a17.17,17.17,0,0,0-7.94-4.58,10,10,0,1,0-12.43,0A17.88,17.88,0,0,0,46.46,42.3a24.24,24.24,0,0,0-1.79,5.05h4.57c1.4-4.78,5.13-11.11,15.1-11.11,4.66,0,8.34,1.34,11,4,3.1,3.14,4.11,7.49,4.44,10.07H55.06v4.45H84.3l0-2.18C84.35,52.2,84.46,43.23,78.5,37.15ZM64.34,19.2a5.56,5.56,0,1,1-5.56,5.55A5.57,5.57,0,0,1,64.34,19.2Z"/><path class="cls-2" d="M52.84,49.57v.74h2.22v-3H49.24a22.33,22.33,0,0,0-.52,2.22Z"/><path class="cls-2" d="M16.94,45.13V83.65H57.28V45.13Zm38.12,9.63H52.84v8.81l.63.63-.63.64V79.21H21.39V65.08l-.88-.88.88-.87V49.57H44.23c.1-.66.24-1.41.44-2.22H55.06Z"/><path class="cls-2" d="M48.72,49.57a22.33,22.33,0,0,1,.52-2.22H44.67c-.2.81-.34,1.56-.44,2.22Z"/><rect class="cls-2" x="52.84" y="50.31" width="2.22" height="4.45"/><polygon class="cls-2" points="26.82 64.2 32.46 58.58 30.36 56.49 22.61 64.2 30.36 71.92 32.46 69.82 26.82 64.2"/><polygon class="cls-2" points="47.16 64.2 41.52 69.82 43.62 71.92 51.37 64.2 43.62 56.49 41.52 58.58 47.16 64.2"/><polygon class="cls-2" points="38.13 51.51 33.3 76.33 36.22 76.9 41.06 52.08 38.13 51.51"/><polygon class="cls-2" points="39.73 58.89 39.88 58.13 39.42 58.58 39.73 58.89"/><polygon class="cls-2" points="51.36 26.47 45.45 20.41 44.94 19.88 44.41 20.39 42.75 21.99 42.22 22.5 42.74 23.04 44.44 24.79 33.9 24.63 33.63 42.55 38.07 42.62 38.28 29.14 44.13 29.23 42.62 30.69 42.09 31.2 42.6 31.74 44.21 33.38 44.72 33.91 45.26 33.4 51.34 27.52 51.88 27 51.36 26.47"/><rect class="cls-1" width="101.4" height="101.4"/></svg>