<svg id="Ebene_1" data-name="Ebene 1" xmlns="http://www.w3.org/2000/svg" viewBox="0 0 101.4 101.4"><defs><style>.cls-1{fill:#fff;}.cls-2{fill:none;}</style></defs><title>ETER-blockchain</title><polygon class="cls-1" points="44.07 58.28 36.32 50.56 44.07 42.85 46.18 44.95 40.53 50.56 46.18 56.19 44.07 58.28"/><polygon class="cls-1" points="57.34 58.28 55.24 56.19 60.88 50.56 55.24 44.95 57.34 42.85 65.09 50.56 57.34 58.28"/><polygon class="cls-1" points="49.94 63.26 47.01 62.69 51.85 37.87 54.77 38.44 49.94 63.26"/><rect class="cls-1" x="16.93" y="48.43" width="4.45" height="4.45"/><rect class="cls-1" x="80.28" y="48.53" width="4.45" height="4.45"/><path class="cls-1" d="M76.94,48.53H72.87V28.15H28.79V48.43H24.34v4.45h4.45V73.35H72.87V53h4.07ZM68.42,68.9H33.23V32.6H68.42Z"/><rect class="cls-2" width="101.4" height="101.4"/></svg>