<svg id="Ebene_1" data-name="Ebene 1" xmlns="http://www.w3.org/2000/svg" viewBox="0 0 101.4 101.4"><defs><style>.cls-1{fill:#fff;}.cls-2{fill:none;}</style></defs><title>ETER-works with</title><path class="cls-1" d="M51.06,22A28.53,28.53,0,1,0,79.58,50.54,28.56,28.56,0,0,0,51.06,22Zm0,52.6A24.08,24.08,0,1,1,75.14,50.54,24.1,24.1,0,0,1,51.06,74.62Z"/><path class="cls-1" d="M46.08,43.59C50,40.74,57.45,42.22,60,43h0l1.36-4.23a32.22,32.22,0,0,0-6.3-1.22l-1-.06v-4h-3v4c-.38,0-.76,0-1.11.09V33.5H47v4.75A12.13,12.13,0,0,0,43.47,40c-3.08,2.25-4.64,5.8-4.64,10.55s1.57,8.4,4.67,10.79A12.88,12.88,0,0,0,47,63.2v5.5h3V64c.37.07.74.12,1.11.16V68.7h3V64.31a32,32,0,0,0,7.24-.87l-1.14-4.3a28.18,28.18,0,0,1-5.39.72c-2.57.08-6.13-.21-8.53-2.06-2-1.52-2.92-3.89-2.92-7.26S44.19,45,46.08,43.59Z"/><rect class="cls-2" width="101.4" height="101.4"/></svg>