<svg id="Ebene_1" data-name="Ebene 1" xmlns="http://www.w3.org/2000/svg" viewBox="0 0 101.4 101.4"><defs><style>.cls-1{fill:#fff;}.cls-2{fill:none;}</style></defs><title>ETER-transformation</title><polygon class="cls-1" points="50.74 44.74 42.03 40.13 38.97 42.65 37.09 40.36 41.66 36.58 50.45 41.23 57.05 36.17 62.45 41.97 60.28 43.99 56.71 40.16 50.74 44.74"/><polygon class="cls-1" points="50.74 53.26 42.03 48.65 38.97 51.17 37.09 48.88 41.66 45.1 50.45 49.75 57.05 44.69 62.45 50.49 60.28 52.52 56.71 48.68 50.74 53.26"/><polygon class="cls-1" points="60.24 61.26 58.13 59.16 50.38 66.88 58.13 74.59 60.24 72.5 54.59 66.88 60.24 61.26"/><polygon class="cls-1" points="69.29 72.5 71.4 74.59 79.15 66.88 71.4 59.16 69.29 61.26 74.94 66.88 69.29 72.5"/><polygon class="cls-1" points="66.37 57.43 66.37 54.47 67.37 54.47 65.91 54.19 61.07 79 63.99 79.57 67.5 61.56 67.19 61.26 67.65 60.8 68.31 57.43 66.37 57.43"/><polygon class="cls-1" points="67.5 61.56 67.65 60.8 67.19 61.26 67.5 61.56"/><rect class="cls-1" x="31.73" y="54.47" width="2.41" height="2.96"/><rect class="cls-1" x="38.74" y="54.47" width="4.6" height="2.96"/><rect class="cls-1" x="47.95" y="54.47" width="4.6" height="2.96"/><polygon class="cls-1" points="58.49 57.43 61.77 57.43 61.77 54.47 57.16 54.47 57.16 57.43 57.77 57.43 58.13 57.07 58.49 57.43"/><polygon class="cls-1" points="58.13 57.07 57.77 57.43 58.49 57.43 58.13 57.07"/><polygon class="cls-1" points="66.37 57.43 68.31 57.43 67.37 54.47 66.37 54.47 66.37 57.43"/><polygon class="cls-1" points="68.78 55.03 68.78 54.74 67.37 54.47 68.31 57.43 68.78 55.03"/><polygon class="cls-1" points="69.15 28.17 30.25 28.17 30.25 57.43 34.7 57.43 34.7 32.61 64.7 32.61 64.7 52.21 69.15 52.99 69.15 28.17"/><rect class="cls-2" width="101.4" height="101.4"/></svg>