<?xml version="1.0" encoding="utf-8"?>
<!-- Generator: Adobe Illustrator 16.0.0, SVG Export Plug-In . SVG Version: 6.00 Build 0)  -->
<!DOCTYPE svg PUBLIC "-//W3C//DTD SVG 1.1//EN" "http://www.w3.org/Graphics/SVG/1.1/DTD/svg11.dtd">
<svg version="1.1" xmlns="http://www.w3.org/2000/svg" xmlns:xlink="http://www.w3.org/1999/xlink" x="0px" y="0px"
	 width="841.889px" height="770px" viewBox="0 -93.86 841.889 770" enable-background="new 0 -93.86 841.889 770"
	 xml:space="preserve">
<g id="Ebene_1">
	<title>IconsZeichenfläche 1 Kopie</title>
	<g>
		<path fill="#828282" d="M420.945,67.607c-127.985,0-232.159,103.748-232.159,232.159c0,128.41,104.174,232.159,232.159,232.159
			s231.734-103.749,232.159-232.159C653.104,171.355,548.93,67.607,420.945,67.607z M420.094,398.838
			c-54.851,0.426-98.646-43.795-99.071-98.646c-0.425-54.851,43.796-99.071,98.646-99.071s99.071,44.221,99.071,98.646
			C518.74,354.617,474.52,398.838,420.094,398.838z M503.396,189.823c-18.208-13.894-39.979-23.368-63.742-26.805v-54.959
			c38.868,3.755,74.372,19.082,103.024,42.492L503.396,189.823z M400.11,162.967c-23.251,3.312-44.61,12.432-62.606,25.831
			l-38.267-38.267c28.124-22.972,62.847-38.154,100.873-42.253V162.967z M309.458,216.674
			c-13.757,18.234-23.12,39.953-26.535,63.533h-53.609c3.872-38.31,19-73.313,42.009-101.668L309.458,216.674z M282.865,319.751
			c3.358,23.673,12.718,45.444,26.513,63.697l-37.833,37.822c-23.05-28.299-38.232-63.252-42.186-101.52H282.865z M337.465,411.283
			c18.003,13.35,39.377,22.424,62.645,25.717v54.255c-37.901-4.086-72.521-19.185-100.596-42.03L337.465,411.283z M439.654,436.845
			c23.671-3.517,45.367-12.95,63.532-26.761l39.161,39.162c-28.595,23.26-63.974,38.485-102.693,42.226V436.845z M530.943,381.919
			c13.193-17.899,22.167-39.099,25.483-62.168h56.104c-3.954,38.28-19.146,73.244-42.209,101.547L530.943,381.919z M556.472,280.207
			c-3.265-23.015-12.203-44.231-25.373-62.166l39.488-39.477c22.998,28.351,38.118,63.345,41.989,101.643H556.472z"/>
		<rect x="124.156" y="280.207" fill="#828282" width="42.52" height="39.544"/>
		<rect x="676.065" y="280.207" fill="#828282" width="42.52" height="39.544"/>
		
			<rect x="204.952" y="84.88" transform="matrix(0.7071 0.7071 -0.7071 0.7071 140.2559 -129.3044)" fill="#828282" width="42.52" height="39.543"/>
		
			<rect x="595.398" y="474.988" transform="matrix(-0.7071 -0.7071 0.7071 -0.7071 702.8536 1280.6515)" fill="#828282" width="42.52" height="39.543"/>
		
			<rect x="596.688" y="83.54" transform="matrix(0.707 0.7072 -0.7072 0.707 254.7416 -405.265)" fill="#828282" width="39.543" height="42.52"/>
		
			<rect x="206.625" y="473.907" transform="matrix(-0.707 -0.7072 0.7072 -0.707 36.2856 1005.3651)" fill="#828282" width="39.543" height="42.519"/>
		<rect x="396.282" y="0.85" fill="#828282" width="39.544" height="42.521"/>
		<rect x="396.282" y="552.76" fill="#828282" width="39.544" height="42.521"/>
	</g>
	<title>IconsZeichenfläche 1</title>
</g>
<g id="Ebene_2" display="none">
	<g display="inline">
		<path fill="#828282" d="M493.991,122.546L122.505,497.033l97.797,98.697l371.487-374.488L493.991,122.546z M538.691,221.242
			l-46.799,47.099l-44.598-44.898l46.699-46.999L538.691,221.242z M175.803,497.033l244.892-246.692l44.599,44.898L220.302,541.931
			L175.803,497.033z"/>
		<polygon fill="#828282" points="658.988,342.338 592.189,275.04 618.888,248.142 685.687,315.34 		"/>
		<polygon fill="#828282" points="447.394,129.245 380.596,61.948 407.296,35.149 474.093,102.346 		"/>
		<rect x="511.491" y="-0.45" fill="#828282" width="37.799" height="95.196"/>
		<polygon fill="#828282" points="608.288,133.146 581.589,106.246 648.388,39.048 675.087,65.948 		"/>
		<rect x="624.888" y="161.344" fill="#828282" width="94.496" height="38.1"/>
	</g>
</g>
<g id="Ebene_3" display="none">
	<g display="inline">
		<path fill="#828282" d="M575.578,204.713V40.162H266.311v164.551h-78.235v350.406h465.738V204.713H575.578z M303.776,77.26
			h234.338v127.453H303.776V77.26z M616.716,518.021H225.54V242.177h391.176V518.021z"/>
		<rect x="402.212" y="326.658" fill="#828282" width="37.098" height="115.332"/>
	</g>
</g>
<g id="Ebene_4">
	<rect x="0" y="-93.86" fill="none" width="841.889" height="770"/>
</g>
</svg>
