<svg id="Ebene_1" data-name="Ebene 1" xmlns="http://www.w3.org/2000/svg" viewBox="0 0 101.4 101.4"><defs><style>.cls-1{fill:none;}.cls-2{fill:#fff;}</style></defs><title>ETER-virtual</title><polygon class="cls-1" points="48.23 65.17 45.65 67.75 50.8 67.75 48.57 65.51 48.23 65.17"/><polygon class="cls-1" points="49.75 57.88 47.65 55.78 46.65 54.78 46.22 54.78 50.52 59.08 50.52 58.65 49.75 57.88"/><polygon class="cls-1" points="38.29 55.23 38.29 59.38 40.36 57.3 38.29 55.23"/><path class="cls-1" d="M40.06,48.62l1,1.05,1.25,1.25V49.23h1.12V47h5.93v2.23h2.71l0,0,0,0H64.59v3H55.14l.15.15,1.05,1-1.05,1-1.77,1.77h4.77v5.92H53.57l2.63,2.64,1,1-1,1-.88.89h13V29.22h-30V50.4l.73-.73Zm2.3-13.84H64.59v3H42.36Zm0,7H64.59v3H42.36Z"/><rect class="cls-2" x="42.36" y="41.82" width="22.23" height="2.96"/><polygon class="cls-2" points="51.1 50.24 52.12 49.23 49.41 49.23 49.41 51.93 51.1 50.24"/><polygon class="cls-2" points="55.14 52.19 64.59 52.19 64.59 49.23 52.17 49.23 53.19 50.24 55.14 52.19"/><rect class="cls-2" x="42.36" y="34.78" width="22.23" height="2.96"/><polygon class="cls-2" points="33.84 24.78 33.84 63.83 38.29 59.38 38.29 55.23 36.92 53.86 35.87 52.82 36.92 51.77 38.29 50.4 38.29 29.22 68.29 29.22 68.29 67.75 55.32 67.75 54.11 68.96 53.06 70 52.01 68.96 50.8 67.75 45.65 67.75 41.21 72.19 72.74 72.19 72.74 24.78 33.84 24.78"/><polygon class="cls-2" points="55.16 65.81 51.71 62.37 49.62 64.46 52.9 67.75 53.22 67.75 55.16 65.81"/><polygon class="cls-2" points="53.22 67.75 52.9 67.75 53.06 67.91 53.22 67.75"/><polygon class="cls-2" points="43.48 54.14 40.06 50.72 38.29 52.5 38.29 53.13 41.41 56.26 43.48 54.19 43.48 54.14"/><polygon class="cls-2" points="37.97 52.82 38.29 53.13 38.29 52.5 37.97 52.82"/><rect class="cls-2" x="44.96" y="52.19" width="2.96" height="1.11"/><rect class="cls-2" x="44.96" y="48.48" width="2.96" height="0.74"/><rect class="cls-2" x="44.96" y="49.23" width="2.96" height="2.96"/><polygon class="cls-2" points="52.09 60.65 56.81 60.65 56.81 57.69 52.04 57.69 52 57.73 52 60.56 52.09 60.65"/><polygon class="cls-2" points="30.43 76.68 28.85 75.1 33.84 70.11 33.84 65.92 24.66 75.1 30.43 80.87 39.11 72.19 34.92 72.19 30.43 76.68"/><path class="cls-2" d="M41.41,58.36h0l-3.12,3.13v4.19l2.48-2.48,1.57,1.58-3,3h4.2L50.32,61l-5.76-5.77-2.1,2.1Zm3.14,1L46.13,61l-1.69,1.69-1.58-1.58Z"/><polygon class="cls-2" points="38.29 65.67 38.29 61.48 33.84 65.92 33.84 70.11 38.29 65.67"/><polygon class="cls-2" points="34.92 72.19 39.11 72.19 43.56 67.75 39.37 67.75 34.92 72.19"/><polygon class="cls-2" points="41.41 58.35 41.41 58.36 42.46 57.31 44.56 55.21 44.55 55.21 41.41 58.35"/><polygon class="cls-2" points="48.74 54.78 50.52 56.55 50.52 56.21 51.42 56.21 54.24 53.39 53.04 52.19 51.25 52.19 49.41 54.03 49.41 54.78 48.74 54.78"/><polygon class="cls-2" points="52.15 51.29 51.25 52.19 53.04 52.19 52.15 51.29"/><polygon class="cls-2" points="48.74 54.78 49.41 54.78 49.41 54.03 48.7 54.74 48.74 54.78"/><polygon class="cls-2" points="50.52 56.55 50.8 56.83 51.42 56.21 50.52 56.21 50.52 56.55"/><rect class="cls-1" width="101.4" height="101.4"/></svg>